PathFileType	4	(X/Y/Z)	Patient4_TMGait_0pt8_01_right_24.trc.trc
DataRate	CameraRate	NumFrames	NumMarkers	Units	OrigDataRate	OrigDataStartFrame	OrigNumFrames
86.956521739130	86.956521739130	5	33	mm	86.956521739130	36	       141
Frame#	Time	Sacral			L.Shoulder			Chest			R.Shoulder			Neck			R.ASIS			L.ASIS			R.Thigh.Superior			R.Thigh.Lateral			R.Thigh.Inferior			R.Patella			L.Thigh.Superior			L.Thigh.Lateral			L.Thigh.Inferior			L.Patella			L.Shank.Superior			L.Shank.Lateral			L.Shank.Inferior			R.Shank.Superior			R.Shank.Lateral			R.Shank.Inferior			R.Heel			R.Midfoot.Superior			R.Midfoot.Lateral			R.Toe			L.Heel			L.Midfoot.Lateral			L.Midfoot.Superior			L.Toe			L.Elbow			L.Wrist			R.Elbow			R.Wrist			
		X1	Y1	Z1	X2	Y2	Z2	X3	Y3	Z3	X4	Y4	Z4	X5	Y5	Z5	X6	Y6	Z6	X7	Y7	Z7	X8	Y8	Z8	X9	Y9	Z9	X10	Y10	Z10	X11	Y11	Z11	X12	Y12	Z12	X13	Y13	Z13	X14	Y14	Z14	X15	Y15	Z15	X16	Y16	Z16	X17	Y17	Z17	X18	Y18	Z18	X19	Y19	Z19	X20	Y20	Z20	X21	Y21	Z21	X22	Y22	Z22	X23	Y23	Z23	X24	Y24	Z24	X25	Y25	Z25	X26	Y26	Z26	X27	Y27	Z27	X28	Y28	Z28	X29	Y29	Z29	X30	Y30	Z30	X31	Y31	Z31	X32	Y32	Z32	X33	Y33	Z33	

36	27.192500000000	901.781351809355	991.172486820594	488.268417042546	1081.427524057669	1427.482211035366	323.565025553594	1174.953738840501	1355.600264650394	489.380119439865	1078.009917589712	1420.175008259748	659.814480034020	1052.434221583908	1483.556322319355	479.691148846145	1130.364372154512	934.024570042175	613.066527889987	1117.511040243460	949.959267190480	336.322079271681	1201.408273437983	753.312248104363	583.012059714521	1136.752550290412	632.220125019812	641.265721061406	1225.723504366793	593.005784464380	565.594280034112	1240.314017568320	503.261151853807	572.604763026745	1137.601131725163	722.767712512730	357.477970843584	1034.059195375604	616.439769041810	295.905088900713	1113.494649255993	523.747014475235	350.454751350902	1096.570957731859	439.608380082054	348.484716537782	1023.295729917337	387.209969812293	347.265204670771	878.013925189610	352.278963732965	306.718796416955	860.969987517025	226.362996462472	367.829178476058	1218.291685861860	411.518534521862	578.045405323256	1153.136503508612	301.338411330792	636.329764405721	1207.431288191278	211.138889309764	574.770568050324	1086.605233585309	42.061244774289	538.785683407881	1256.399010548072	99.139446082874	576.133294134031	1169.659199094397	36.992272271066	614.211041826817	1376.930241234656	50.209453098645	603.500786778883	669.144278253635	165.657926042636	419.697363018298	721.171519804753	120.206262789570	336.365911942367	826.940354338986	130.775619517265	350.608910251701	903.776716412545	33.465818419975	318.642992201674	1157.472232755486	1100.236077694579	176.811630925873	1410.308930095268	1058.406037401948	199.713703546210	952.827376903215	1090.987716060955	750.678323221811	927.402986697655	836.165411718785	778.159840595949	
37	27.204000000000	902.110436250671	992.905303567461	491.846706668723	1079.098766343433	1429.626558916195	325.686010780927	1174.694385000523	1357.739754301440	490.340154674870	1079.674943397635	1421.990134335091	661.810689273935	1051.882401343411	1485.468091980721	482.107591972028	1131.553438668305	936.103556252284	614.516108493504	1116.850234236396	951.573393872484	337.702759121859	1199.773469971108	752.517616174085	585.987992758422	1132.562647883597	632.709268959487	643.128173312090	1221.123912686361	592.238415218465	567.560642760598	1234.156261401583	502.582765401371	574.104584095272	1143.025027213487	726.390935034659	358.611694376758	1043.715099915404	617.160219709399	296.418889291373	1126.780144448518	526.452728833596	349.985950626554	1111.240499791565	441.011568953043	347.403931569863	1036.075259745766	388.728579943691	346.881570400148	889.144791828793	358.972657888888	307.612660391048	868.324043845140	233.618977122773	368.653327383279	1211.316696854364	411.192692064256	579.554986684757	1145.096717035768	301.398079114129	637.300867247202	1198.951992104626	210.990155729691	575.677575237274	1077.480026598471	41.993115914050	539.035672966744	1247.426475807233	99.445255182548	576.734845584697	1160.476628568790	36.967859567901	614.428174197396	1367.716587794087	50.457813649163	603.762803627995	674.637852087054	181.565363424686	422.052098610647	723.783540264587	133.813504447532	338.023329572960	830.498291958722	138.609149667098	351.438591011220	901.432605738343	34.758225640908	318.160348063618	1149.664099276238	1099.301400231634	181.765794000316	1400.689647435784	1044.619270944052	202.690998844264	962.961935092607	1089.045670678393	754.245704154136	948.927913431691	833.012649684997	780.721730830437	
38	27.215500000000	902.216521791058	994.653162567761	495.371983872664	1076.419941038922	1431.674277087318	327.656938692570	1174.262480898719	1359.804058241342	491.030662583307	1081.394104786407	1423.725411008966	663.660552272481	1051.215422561108	1487.320578902417	484.415820040122	1132.507916331131	938.107821488708	615.795825563496	1115.967320178948	953.121711780794	338.988539257280	1197.601845454738	751.600366455745	588.837314635252	1127.883596206093	633.158397930852	644.949701908954	1215.907429091903	591.407445565010	569.405147982658	1227.318194013935	501.914544666926	575.563899992775	1148.246123009568	730.364927477222	359.481005869985	1053.144270629906	618.448215374080	296.623260462178	1139.747917148599	529.877472070572	349.149011619317	1125.854027193819	443.262136649947	346.017544819052	1049.207803757984	390.868696337682	346.203512404496	900.885400505458	365.548507695892	308.397726433300	876.973721065918	240.742806785295	369.449344374007	1203.819126454874	410.898027326883	581.015871313222	1136.699620487157	301.420893697896	638.243272861755	1190.235950707533	210.873103367241	576.562011770980	1068.286376063350	41.952795868935	539.265592885127	1238.454008792317	99.695403766275	577.280004948156	1151.242983187679	36.915644661377	614.615016903479	1358.481680348045	50.556112721669	603.951076162805	682.100209985115	195.931686845091	424.655792860999	728.572440520319	146.526555278509	339.839737085186	835.929755948735	146.474997356083	352.343536013917	901.760359601757	36.856595332313	317.521819937755	1141.628760391440	1098.413203403722	186.656309913769	1389.965646219823	1029.977665988100	205.489465629403	973.694085554324	1087.183912481531	757.810393262698	971.578453711284	830.363985239961	783.075334575820	
39	27.227000000000	902.130013316191	996.381190278986	498.818818948208	1073.475944565168	1433.590193024019	329.465533899868	1173.678519683948	1361.756810331057	491.471092290107	1083.139411322950	1425.366378224444	665.349905083542	1050.459850491649	1489.095267701359	486.579955713177	1133.223227811147	940.020004253202	616.949257696408	1114.868638255485	954.608157533969	340.247634241578	1194.970547056430	750.666555888407	591.450566777062	1122.893093557953	633.607100369402	646.724783110359	1210.226904470481	590.567491261533	571.106468449299	1219.968297136111	501.287762057314	576.976643400585	1153.184827237815	734.671324181548	360.130406503290	1062.207764168555	620.321755297221	296.547347146170	1152.229047857495	534.015732572326	347.956738590388	1140.232174013015	446.362743105358	344.297217660834	1062.552389504578	393.611171090744	345.206556248208	913.089196279035	371.788404372590	309.008018832502	886.932589636598	247.433614240045	370.114253221415	1195.957212279312	410.647532968271	582.408057409515	1128.091370556073	301.437528608567	639.170843608198	1181.370386761663	210.791505393527	577.408858195825	1059.034905087322	41.948786777840	539.486572395626	1229.481304516867	99.887010849494	577.763596852334	1141.973081452799	36.852055890658	614.785957318281	1349.234504133075	50.517903507737	604.079949883649	691.474979838339	208.127207413851	427.317007392711	735.625823386462	157.699527473073	341.675284993958	843.376845053904	153.942742953324	353.197853520293	905.151242019831	39.654014237424	316.733558577486	1133.411100653995	1097.523401596313	191.458952687800	1378.022617453449	1014.610087832473	208.081471537501	985.037357685990	1085.409996135888	761.317271997392	995.223449473264	828.315622829427	785.203262410760	
40	27.238500000000	901.890029174414	998.054060979180	502.172674871148	1070.359013542450	1435.346896527987	331.108379908638	1172.966799693373	1363.570792363493	491.692702585454	1084.879263707489	1426.912523228495	666.867636528720	1049.641782040520	1490.777589845975	488.568026034770	1133.703075597216	941.823245234370	618.022355617549	1113.562036766185	956.043332971091	341.539424826999	1191.966218488180	749.797285897250	593.746705471211	1117.731728626930	634.075587828009	648.439721339162	1204.218774363998	589.753668114838	572.652112544215	1212.266637860578	500.720975723309	578.324658889619	1157.790838982000	739.280803051477	360.614498347040	1070.818896093167	622.760299807025	296.235732226169	1164.115686188396	538.828641432965	346.447430020430	1154.244087953755	450.284023711700	342.256132728743	1076.005823548805	396.903584757135	343.900942486220	925.651898072745	377.470294380995	309.378359787160	898.209756350544	253.405040658564	370.552463483769	1187.871971488906	410.445192734734	583.712273884086	1119.387439466908	301.469060937593	640.079501253384	1172.429489800583	210.744666607297	578.203631851710	1049.742063330885	41.982678817985	539.704828008933	1220.502310359935	100.026339109960	578.184564690764	1132.683599613195	36.792242152885	614.948878936487	1339.982609311746	50.375120469803	604.166656417120	702.676602356851	217.655317755311	429.817761408741	744.982291700312	166.788002251685	343.366096445831	852.943600795701	160.591435236202	353.875660643909	911.887573887909	42.922219938178	315.800060435383	1125.044433783215	1096.596019984062	196.157063110279	1364.743409754320	998.658673111346	210.447046863571	996.987275131199	1083.754819392807	764.707864522914	1019.730340021520	826.971112691716	787.084891660313	
